<svg width="1024" height="1024" viewBox="0 0 1024 1024" fill="none" xmlns="http://www.w3.org/2000/svg">
  <defs>
    <linearGradient id="bg" x1="128" y1="128" x2="896" y2="896" gradientUnits="userSpaceOnUse">
      <stop stop-color="#0B1020"/>
      <stop offset="1" stop-color="#121A33"/>
    </linearGradient>
    <linearGradient id="ring" x1="220" y1="220" x2="804" y2="804" gradientUnits="userSpaceOnUse">
      <stop stop-color="#7C8CFF"/>
      <stop offset="1" stop-color="#4EE3C1"/>
    </linearGradient>
    <linearGradient id="bolt" x1="460" y1="320" x2="612" y2="720" gradientUnits="userSpaceOnUse">
      <stop stop-color="#EAF0FF"/>
      <stop offset="1" stop-color="#BFD4FF"/>
    </linearGradient>
    <filter id="shadow" x="0" y="0" width="1024" height="1024" filterUnits="userSpaceOnUse" color-interpolation-filters="sRGB">
      <feFlood flood-opacity="0" result="BackgroundImageFix"/>
      <feColorMatrix in="SourceAlpha" type="matrix" values="0 0 0 0 0 0 0 0 0 0 0 0 0 0 0 0 0 0 127 0" result="hardAlpha"/>
      <feOffset dy="12"/>
      <feGaussianBlur stdDeviation="18"/>
      <feComposite in2="hardAlpha" operator="out"/>
      <feColorMatrix type="matrix" values="0 0 0 0 0.05 0 0 0 0 0.09 0 0 0 0 0.20 0 0 0 0.35 0"/>
      <feBlend mode="normal" in2="BackgroundImageFix" result="effect1_dropShadow_1_1"/>
      <feBlend mode="normal" in="SourceGraphic" in2="effect1_dropShadow_1_1" result="shape"/>
    </filter>
  </defs>

  <rect x="96" y="96" width="832" height="832" rx="224" fill="url(#bg)"/>

  <g filter="url(#shadow)">
    <circle cx="512" cy="512" r="288" stroke="url(#ring)" stroke-width="44"/>
    <circle cx="512" cy="512" r="214" fill="#0F1730" stroke="#2A3A69" stroke-width="8"/>

    <rect x="324" y="370" width="376" height="210" rx="98" fill="#192544" stroke="#5B6DAA" stroke-width="10"/>
    <circle cx="430" cy="475" r="32" fill="#4EE3C1"/>
    <circle cx="594" cy="475" r="32" fill="#7C8CFF"/>

    <path d="M548 290L512 238L476 290" stroke="#AFC2FF" stroke-width="14" stroke-linecap="round"/>

    <path d="M544 390L458 535H525L490 674L612 502H537L572 390H544Z" fill="url(#bolt)"/>

    <rect x="370" y="610" width="284" height="26" rx="13" fill="#2A3A69"/>
  </g>
</svg>
